HIERARCHY
ROOT Hips
{
	OFFSET 0.000000 0.000000 0.000000
	CHANNELS 6 Xposition Yposition Zposition Xrotation Yrotation Zrotation
	JOINT LeftUpLeg_virtual
	{
		OFFSET 0.000000 0.000000 0.000000
		CHANNELS 3 Xrotation Yrotation Zrotation
		JOINT LeftUpLeg
		{
			OFFSET 13.026900 -6.336304 -1.092800
			CHANNELS 3 Xrotation Yrotation Zrotation
			JOINT LeftLeg
			{
				OFFSET 0.524474 -46.096886 9.782700
				CHANNELS 3 Xrotation Yrotation Zrotation
				JOINT LeftFoot
				{
					OFFSET -0.524474 -53.427422 -12.948200
					CHANNELS 3 Xrotation Yrotation Zrotation
					JOINT LeftToeBase
					{
						OFFSET 0.192200 -14.009700 16.364100
						CHANNELS 3 Xrotation Yrotation Zrotation
						JOINT LeftToe_End
						{
							OFFSET -1.784700 -0.561700 9.474800
							CHANNELS 3 Xrotation Yrotation Zrotation
							End Site
							{
								OFFSET 0 0 0
							}
						}
					}
				}
			}
		}
	}
	JOINT RightUpLeg_virtual
	{
		OFFSET 0.000000 0.000000 0.000000
		CHANNELS 3 Xrotation Yrotation Zrotation
		JOINT RightUpLeg
		{
			OFFSET -12.883000 -6.336304 -1.092800
			CHANNELS 3 Xrotation Yrotation Zrotation
			JOINT RightLeg
			{
				OFFSET -0.524587 -46.096825 9.782800
				CHANNELS 3 Xrotation Yrotation Zrotation
				JOINT RightFoot
				{
					OFFSET 0.524587 -53.427383 -12.948300
					CHANNELS 3 Xrotation Yrotation Zrotation
					JOINT RightToeBase
					{
						OFFSET -0.192200 -14.009700 16.364100
						CHANNELS 3 Xrotation Yrotation Zrotation
						JOINT RightToe_End
						{
							OFFSET 1.784700 -0.561700 9.474800
							CHANNELS 3 Xrotation Yrotation Zrotation
							End Site
							{
								OFFSET 0 0 0
							}
						}
					}
				}
			}
		}
	}
	JOINT Spine_virtual
	{
		OFFSET 0.000000 0.000000 0.000000
		CHANNELS 3 Xrotation Yrotation Zrotation
		JOINT Spine
		{
			OFFSET 0.072000 7.257294 -0.789700
			CHANNELS 3 Xrotation Yrotation Zrotation
			JOINT Spine1
			{
				OFFSET 0.000000 12.508769 -0.658067
				CHANNELS 3 Xrotation Yrotation Zrotation
				JOINT Spine1_split
				{
					OFFSET 0.000000 12.508769 -0.658067
					CHANNELS 3 Xrotation Yrotation Zrotation
					JOINT Spine2
					{
						OFFSET 0.000000 12.508769 -0.658067
						CHANNELS 3 Xrotation Yrotation Zrotation
						JOINT Neck_virtual
						{
							OFFSET 0.000000 0.000000 0.000000
							CHANNELS 3 Xrotation Yrotation Zrotation
							JOINT Neck
							{
								OFFSET 0.000000 14.033295 7.520400
								CHANNELS 3 Xrotation Yrotation Zrotation
								JOINT Head
								{
									OFFSET 0.000000 8.198502 5.703100
									CHANNELS 3 Xrotation Yrotation Zrotation
									JOINT HeadTop_End
									{
										OFFSET 0.000000 17.760803 13.332701
										CHANNELS 3 Xrotation Yrotation Zrotation
										End Site
										{
											OFFSET 0 0 0
										}
									}
								}
							}
						}
						JOINT LeftShoulder_virtual
						{
							OFFSET 0.000000 0.000000 0.000000
							CHANNELS 3 Xrotation Yrotation Zrotation
							JOINT LeftShoulder
							{
								OFFSET 6.292450 5.785301 -0.669000
								CHANNELS 3 Xrotation Yrotation Zrotation
								JOINT LeftShoulder_split
								{
									OFFSET 6.292450 5.785301 -0.669000
									CHANNELS 3 Xrotation Yrotation Zrotation
									JOINT LeftArm
									{
										OFFSET 13.907140 -6.093903 1.965100
										CHANNELS 3 Xrotation Yrotation Zrotation
										JOINT LeftForeArm
										{
											OFFSET 34.140198 0.000000 0.000000
											CHANNELS 3 Xrotation Yrotation Zrotation
											JOINT LeftHand
											{
												OFFSET 40.960209 0.000000 0.000000
												CHANNELS 3 Xrotation Yrotation Zrotation
												End Site
												{
													OFFSET 0 0 0
												}
											}
										}
									}
								}
							}
						}
						JOINT RightShoulder_virtual
						{
							OFFSET 0.000000 0.000000 0.000000
							CHANNELS 3 Xrotation Yrotation Zrotation
							JOINT RightShoulder
							{
								OFFSET -6.292450 5.785301 -0.669000
								CHANNELS 3 Xrotation Yrotation Zrotation
								JOINT RightShoulder_split
								{
									OFFSET -6.292450 5.785301 -0.669000
									CHANNELS 3 Xrotation Yrotation Zrotation
									JOINT RightArm
									{
										OFFSET -13.907140 -6.093903 1.965100
										CHANNELS 3 Xrotation Yrotation Zrotation
										JOINT RightForeArm
										{
											OFFSET -34.140198 0.000000 0.000000
											CHANNELS 3 Xrotation Yrotation Zrotation
											JOINT RightHand
											{
												OFFSET -40.960209 0.000000 0.000000
												CHANNELS 3 Xrotation Yrotation Zrotation
												End Site
												{
													OFFSET 0 0 0
												}
											}
										}
									}
								}
							}
						}
					}
				}
			}
		}
	}
}
MOTION
Frames: 8
Frame Time: 0.03333333
-159.983307 40.669998 5.787033 0.000000 0.000000 0.000000 5.595280 10.276002 -43.583123 -112.265538 -0.138654 4.698853 25.541308 3.529269 1.302443 34.606257 -2.966324 25.135544 -4.396127 2.143129 2.570184 0.000000 0.000000 0.000000 7.806461 12.131834 -45.876912 -97.392842 -18.467378 -20.316015 107.847943 7.179027 0.311620 17.832982 25.474297 5.448973 -46.956389 1.900272 0.449619 0.000000 0.000000 0.000000 4.391046 8.012818 -47.022000 23.753796 -3.746713 -14.744095 4.083207 1.261471 -2.948040 1.852823 0.659697 2.705828 0.000000 0.000000 0.000000 4.843682 1.159839 -3.195500 -2.700923 -1.248367 1.844263 -4.018145 18.302564 4.214136 0.000000 0.000000 0.000000 4.481610 1.374461 -2.931275 0.347921 -23.929264 -12.572306 -3.644335 -2.390161 -1.686987 -39.738068 34.653392 -10.858632 4.389581 -69.841164 4.153755 0.000000 0.000000 0.000000 4.880505 1.178604 -2.986758 2.807426 9.110020 -0.005175 8.241276 7.650591 -0.690943 -45.544555 -33.675537 -10.730161 -1.676717 50.760433 0.164883 0.000000 0.000000 0.000000 
-158.554382 43.478119 4.279594 0.000000 0.000000 0.000000 5.038773 7.037319 -46.628544 -114.285526 -1.845486 6.504346 34.628899 6.025687 0.661877 31.945748 -1.532013 25.299214 -4.708563 2.311773 1.654505 0.000000 0.000000 0.000000 7.454365 9.569803 -48.684687 -93.364383 -21.225025 -16.794421 103.182910 6.525092 0.121843 17.424731 25.425905 5.536250 -43.292867 1.992712 0.134526 0.000000 0.000000 0.000000 4.203491 6.892967 -49.551158 23.180204 -4.498294 -15.007833 4.319267 0.887556 -2.989625 2.021354 1.617038 2.379293 0.000000 0.000000 0.000000 4.676375 0.819794 -3.295146 -2.469545 -0.734667 2.047797 -4.011146 19.709218 4.617691 0.000000 0.000000 0.000000 4.609166 1.044965 -3.073218 1.444979 -22.678805 -11.249727 -3.787292 -3.210366 -1.582289 -42.411889 32.141443 -9.271284 3.747425 -66.890952 3.788235 0.000000 0.000000 0.000000 4.958759 0.859146 -3.093782 2.786827 8.775601 -0.943211 8.226909 6.565314 -1.296773 -45.627187 -38.512705 -13.184898 -1.256989 51.820703 0.091455 0.000000 0.000000 0.000000 
-157.225555 46.934227 2.835579 0.000000 0.000000 0.000000 5.158135 3.269727 -50.279512 -116.319283 -4.283458 8.793243 48.358228 7.766692 -0.254627 27.604993 0.182901 25.499251 -6.448750 2.388892 1.052705 0.000000 0.000000 0.000000 7.983530 6.691338 -52.168531 -89.462617 -23.877059 -12.934369 97.384858 5.975414 0.425752 18.019391 25.463661 6.122150 -40.130630 2.072415 -0.321076 0.000000 0.000000 0.000000 4.770723 4.990961 -52.428467 22.804070 -5.320517 -14.581190 4.409507 0.376664 -2.940835 2.125366 2.855202 1.819851 0.000000 0.000000 0.000000 4.354000 0.313930 -3.229311 -2.189874 -0.083275 2.215494 -4.471710 20.955555 5.399536 0.000000 0.000000 0.000000 4.594328 0.566310 -3.106929 2.458314 -21.109555 -9.584308 -3.733221 -3.657030 -1.860648 -46.145130 28.756749 -7.194096 2.665714 -63.152462 2.928366 0.000000 0.000000 0.000000 4.875892 0.411265 -3.057264 2.610899 7.931859 -1.371033 8.088488 5.227709 -1.868547 -46.871343 -44.302533 -14.683226 -0.982943 54.103933 0.221924 0.000000 0.000000 0.000000 
-156.184875 51.126846 1.118141 0.000000 0.000000 0.000000 6.119182 -0.431258 -53.853269 -117.195473 -6.604651 11.084840 63.078464 8.478730 -1.208614 21.187961 1.655566 25.818014 -9.233631 2.279248 0.897969 0.000000 0.000000 0.000000 9.230783 3.446147 -55.712876 -86.419774 -25.878195 -9.298324 89.924809 5.611213 1.257518 20.246540 25.649234 7.591754 -36.380156 2.134871 -0.843903 0.000000 0.000000 0.000000 6.042155 2.465994 -55.241139 22.534457 -6.183477 -13.662765 4.320260 -0.201635 -2.859629 1.937358 3.778664 1.115494 0.000000 0.000000 0.000000 3.942228 -0.292685 -3.047151 -1.846866 0.630707 2.278198 -5.433400 21.902364 6.560009 0.000000 0.000000 0.000000 4.454111 0.004717 -3.050431 3.283471 -19.360257 -7.624983 -3.050484 -3.695672 -2.125643 -50.270530 25.168477 -5.229006 1.462153 -59.784338 1.776602 0.000000 0.000000 0.000000 4.672666 -0.126376 -2.941233 2.317179 6.523317 -1.477614 7.929159 3.873935 -2.248067 -48.727205 -50.866195 -15.269316 -0.901490 57.605385 0.569959 0.000000 0.000000 0.000000 
-155.402222 55.906746 -1.050594 0.000000 0.000000 0.000000 7.896069 -3.435893 -56.854351 -116.491171 -8.591933 13.091800 75.255673 7.609640 -1.428661 14.074506 2.326617 25.261815 -12.994992 1.920445 1.354543 0.000000 0.000000 0.000000 10.862893 0.075293 -58.702771 -84.572215 -27.045867 -6.377340 80.820406 5.358472 2.448955 23.662038 25.925663 10.196994 -30.885750 2.153552 -1.280279 0.000000 0.000000 0.000000 7.919265 -0.482022 -57.682525 22.439019 -7.095545 -12.550390 4.116539 -0.754824 -2.803551 1.641993 3.821755 0.911568 0.000000 0.000000 0.000000 3.577228 -0.925373 -2.806313 -1.541263 1.325363 2.168465 -6.816189 22.427449 7.938515 0.000000 0.000000 0.000000 4.202450 -0.581484 -2.959444 3.830513 -17.933150 -5.519942 -1.761296 -3.192381 -2.309265 -54.926165 21.244651 -3.665926 0.678163 -56.467650 0.709872 0.000000 0.000000 0.000000 4.450041 -0.713870 -2.806113 1.958685 4.843054 -1.406997 8.084674 2.865387 -2.471539 -50.162859 -57.664924 -14.712948 -0.939952 61.249981 1.004214 0.000000 0.000000 0.000000 
-154.812820 60.923439 -3.549911 0.000000 0.000000 0.000000 10.424991 -5.982517 -58.891400 -114.332312 -10.483996 14.633170 83.667857 5.419519 -0.795579 8.073482 2.622160 23.568592 -17.611860 1.257935 2.190911 0.000000 0.000000 0.000000 12.728671 -3.176988 -60.687126 -84.018061 -27.367757 -4.316646 70.696795 4.909043 3.924218 27.023334 25.848134 13.308121 -23.409418 2.116473 -1.517058 0.000000 0.000000 0.000000 10.350271 -3.349549 -59.419388 22.644994 -8.045075 -11.436256 3.878843 -1.241633 -2.801703 1.645013 2.934186 0.724927 0.000000 0.000000 0.000000 3.298818 -1.540531 -2.568556 -1.459811 1.926231 1.957364 -8.506028 22.505361 9.339372 0.000000 0.000000 0.000000 3.950104 -1.152457 -2.869957 4.109621 -17.302107 -3.296378 -0.196531 -2.495464 -2.376490 -59.886559 16.921787 -2.506153 0.344305 -52.317169 -0.083094 0.000000 0.000000 0.000000 4.285730 -1.305558 -2.703073 1.607675 3.387032 -1.236467 8.220455 2.483241 -2.744200 -49.528751 -63.966866 -12.160230 -0.976122 63.691350 1.379848 0.000000 0.000000 0.000000 
-154.299362 65.477966 -6.562279 0.000000 0.000000 0.000000 13.310670 -7.947868 -59.623542 -111.019063 -12.724370 15.299485 88.577780 2.977953 0.005343 4.172612 3.884864 21.820588 -23.063915 0.467623 2.893335 0.000000 0.000000 0.000000 14.727911 -6.097107 -61.426726 -84.524909 -26.989887 -3.207604 61.127809 3.878692 5.522117 28.834812 24.498403 15.989208 -14.191766 2.051177 -1.485095 0.000000 0.000000 0.000000 13.072489 -6.008371 -60.187743 23.338316 -8.954146 -10.464697 3.767158 -1.609175 -2.840688 1.803393 1.148296 0.830635 0.000000 0.000000 0.000000 3.184688 -2.099011 -2.355380 -1.787588 2.323197 1.691061 -10.351212 22.177168 10.519316 0.000000 0.000000 0.000000 3.786030 -1.675977 -2.808073 4.130447 -17.826242 -1.258630 1.102863 -1.736887 -2.196009 -64.862447 12.229326 -1.868284 0.714603 -46.998887 -0.343892 0.000000 0.000000 0.000000 4.256022 -1.838393 -2.620785 1.295990 2.765920 -0.925011 8.242544 2.815640 -2.799736 -44.682107 -68.562504 -6.128685 -0.887708 63.477681 1.464209 0.000000 0.000000 0.000000 
-153.777557 68.810135 -9.808804 0.000000 0.000000 0.000000 16.131968 -9.602570 -59.091587 -106.521288 -15.749523 15.165812 91.266948 1.175945 0.428777 1.901734 6.911710 21.393763 -29.300033 -0.225408 3.047144 0.000000 0.000000 0.000000 16.294383 -8.585205 -60.942103 -86.315115 -26.167025 -3.255136 53.978886 2.380470 6.967510 28.621148 21.529006 17.776474 -4.741058 2.016780 -1.215724 0.000000 0.000000 0.000000 15.771593 -8.106907 -59.949882 24.661346 -9.719902 -9.688548 3.851624 -1.814591 -2.925964 2.389131 -0.343009 1.113716 0.000000 0.000000 0.000000 3.222706 -2.541087 -2.204754 -2.555761 2.553163 1.419415 -12.164144 21.511408 11.339691 0.000000 0.000000 0.000000 3.810154 -2.107875 -2.796297 3.938569 -19.625155 0.384729 1.642814 -0.901749 -2.208216 -69.426086 7.655356 -1.587908 1.504302 -40.976026 -0.155177 0.000000 0.000000 0.000000 4.398315 -2.254858 -2.560850 1.081298 3.375913 -0.389379 8.064608 3.748708 -2.837413 -35.130340 -70.450765 3.320936 -0.702188 60.743925 1.264222 0.000000 0.000000 0.000000 
